<?xml version="1.0" encoding="utf-8"?>
<!-- Generator: Adobe Illustrator 23.0.0, SVG Export Plug-In . SVG Version: 6.00 Build 0)  -->
<svg version="1.1" id="Layer_1" xmlns="http://www.w3.org/2000/svg" xmlns:xlink="http://www.w3.org/1999/xlink" x="0px" y="0px"
	 viewBox="0 0 512 512" style="enable-background:new 0 0 512 512;" xml:space="preserve">
<style type="text/css">
	.st0{fill:#2D527C;}
	.st1{fill:#CEE8FA;}
	.st2{fill:#F0BF5F;}
</style>
<path class="st0" d="M465.9,475.3h-70.4c-7.5,0-13.6-6.1-13.6-13.6s6.1-13.6,13.6-13.6h70.4c10.5,0,19-8.5,19-19V182.2
	c0-10.5-8.5-19-19-19h-328c-10.5,0-19,8.5-19,19v247.1c0,10.5,8.5,19,19,19h183c7.5,0,13.6,6.1,13.6,13.6s-6.1,13.6-13.6,13.6h-183
	c-25.4,0-46.1-20.7-46.1-46.1V182.2c0-25.4,20.7-46.1,46.1-46.1h328c25.4,0,46.1,20.7,46.1,46.1v247.1
	C512,454.6,491.3,475.3,465.9,475.3z"/>
<path class="st1" d="M190.7,412L190.7,412c-13,0-23.7-10.7-23.7-23.7V223.1c0-13,10.7-23.7,23.7-23.7l0,0c13,0,23.7,10.7,23.7,23.7
	v165.2C214.3,401.3,203.7,412,190.7,412z"/>
<path class="st2" d="M190.7,425.5c-20.5,0-37.2-16.7-37.2-37.2V223.1c0-20.5,16.7-37.2,37.2-37.2s37.2,16.7,37.2,37.2v165.2
	C227.9,408.8,211.2,425.5,190.7,425.5z M190.7,213c-5.6,0-10.1,4.5-10.1,10.1v165.2c0,5.6,4.5,10.1,10.1,10.1s10.1-4.5,10.1-10.1
	V223.1C200.8,217.5,196.2,213,190.7,213z"/>
<path class="st1" d="M301.9,412L301.9,412c-13,0-23.7-10.7-23.7-23.7V223.1c0-13,10.7-23.7,23.7-23.7l0,0c13,0,23.7,10.7,23.7,23.7
	v165.2C325.6,401.3,315,412,301.9,412z"/>
<path class="st2" d="M301.9,425.5c-20.5,0-37.2-16.7-37.2-37.2V223.1c0-20.5,16.7-37.2,37.2-37.2s37.2,16.7,37.2,37.2v165.2
	C339.2,408.8,322.5,425.5,301.9,425.5z M301.9,213c-5.6,0-10.1,4.5-10.1,10.1v165.2c0,5.6,4.5,10.1,10.1,10.1s10.1-4.5,10.1-10.1
	V223.1C312,217.5,307.5,213,301.9,213z"/>
<path class="st1" d="M413.2,412L413.2,412c-13,0-23.7-10.7-23.7-23.7V223.1c0-13,10.7-23.7,23.7-23.7l0,0c13,0,23.7,10.7,23.7,23.7
	v165.2C436.9,401.3,426.2,412,413.2,412z"/>
<g>
	<path class="st2" d="M413.2,425.5c-20.5,0-37.2-16.7-37.2-37.2V223.1c0-20.5,16.7-37.2,37.2-37.2s37.2,16.7,37.2,37.2v165.2
		C450.4,408.8,433.7,425.5,413.2,425.5z M413.2,213c-5.6,0-10.1,4.5-10.1,10.1v165.2c0,5.6,4.5,10.1,10.1,10.1s10.1-4.5,10.1-10.1
		V223.1C423.3,217.5,418.8,213,413.2,213z"/>
	<path class="st0" d="M105.4,230.5H58.3c-7.5,0-13.6-6.1-13.6-13.6s6.1-13.6,13.6-13.6h47.1c7.5,0,13.6,6.1,13.6,13.6
		S112.9,230.5,105.4,230.5z"/>
	<path class="st0" d="M105.4,408H58.3c-7.5,0-13.6-6.1-13.6-13.6c0-7.5,6.1-13.6,13.6-13.6h47.1c7.5,0,13.6,6.1,13.6,13.6
		S112.9,408,105.4,408z"/>
	<path class="st2" d="M47.4,251.5c-7.5,0-13.6-6.1-13.6-13.6v-145c0-7.5,6.1-13.6,13.6-13.6S61,85.5,61,92.9v145
		C61,245.4,54.9,251.5,47.4,251.5z"/>
	<path class="st0" d="M47.4,475.3c-7.5,0-13.6-6.1-13.6-13.6v-156c0-7.5,6.1-13.6,13.6-13.6S61,298.2,61,305.7v156
		C61,469.2,54.9,475.3,47.4,475.3z"/>
</g>
<rect x="13.6" y="50.3" class="st1" width="67.8" height="73.2"/>
<path class="st0" d="M81.3,137H13.6C6.1,137,0,130.9,0,123.4V50.3c0-7.5,6.1-13.6,13.6-13.6h67.8c7.5,0,13.6,6.1,13.6,13.6v73.2
	C94.9,130.9,88.8,137,81.3,137z M27.1,109.9h40.7V63.8H27.1V109.9z"/>
</svg>
