<?xml version="1.0" encoding="utf-8"?>
<!-- Generator: Adobe Illustrator 23.0.0, SVG Export Plug-In . SVG Version: 6.00 Build 0)  -->
<svg version="1.1" id="Layer_1" xmlns="http://www.w3.org/2000/svg" xmlns:xlink="http://www.w3.org/1999/xlink" x="0px" y="0px"
	 viewBox="0 0 512 512" style="enable-background:new 0 0 512 512;" xml:space="preserve">
<style type="text/css">
	.st0{fill:#2D527C;}
	.st1{fill:#F0BF5F;}
	.st2{fill:#CEE8FA;}
</style>
<g>
	<path class="st0" d="M298.3,143.4H149c-8,0-14.5-6.5-14.5-14.5s6.5-14.5,14.5-14.5h149.3c8,0,14.5,6.5,14.5,14.5
		S306.3,143.4,298.3,143.4z"/>
	<path class="st0" d="M180.9,383.9h-46.1C60.5,383.9,0,323.4,0,249.1c0-49.2,26.8-94.5,70-118.2c7-3.9,15.9-1.3,19.8,5.8
		c3.9,7,1.3,15.9-5.8,19.8c-33.9,18.6-54.9,54.1-54.9,92.7c0,58.3,47.4,105.7,105.7,105.7h46.1c8,0,14.5,6.5,14.5,14.5
		C195.5,377.3,188.9,383.9,180.9,383.9z"/>
	<path class="st1" d="M193.3,490.3C127,490.3,73,436.3,73,369.9c0-8,6.5-14.5,14.5-14.5s14.5,6.5,14.5,14.5
		c0,50.3,40.9,91.3,91.3,91.3s91.3-40.9,91.3-91.3c0-50.3-40.9-91.3-91.3-91.3c-25.3,0-48.8,10.1-66.2,28.4
		c-5.5,5.8-14.7,6.1-20.6,0.5c-5.8-5.5-6.1-14.7-0.5-20.6c23-24.2,54-37.5,87.3-37.5c66.4,0,120.4,54,120.4,120.4
		S259.7,490.3,193.3,490.3z"/>
	<path class="st1" d="M384.5,355.2h-88.8c-8,0-14.5-6.5-14.5-14.5s6.5-14.5,14.5-14.5h88.8c8,0,14.5,6.5,14.5,14.5
		S392.5,355.2,384.5,355.2z"/>
	<path class="st1" d="M479.5,413.7H299.1c-8,0-14.5-6.5-14.5-14.5c0-8,6.5-14.5,14.5-14.5h180.4c1.9,0,3.4-1.5,3.4-3.4v-82.6
		c0-2.8-2.3-5-5-5h-12.6c-2.8,0-5,2.3-5,5v38.8c0,8-6.5,14.5-14.5,14.5c-8,0-14.5-6.5-14.5-14.5v-38.8c0-18.8,15.3-34.1,34.1-34.1
		h12.6c18.8,0,34.1,15.3,34.1,34.1v82.6C512,399.1,497.4,413.7,479.5,413.7z"/>
</g>
<circle class="st2" cx="193.3" cy="369.3" r="41.4"/>
<path class="st1" d="M193.3,425.2c-30.8,0-55.9-25.1-55.9-55.9s25.1-55.9,55.9-55.9s55.9,25.1,55.9,55.9S224.2,425.2,193.3,425.2z
	 M193.3,342.5c-14.8,0-26.8,12-26.8,26.8s12,26.8,26.8,26.8c14.8,0,26.8-12,26.8-26.8C220.1,354.5,208.1,342.5,193.3,342.5z"/>
<path class="st2" d="M216.4,190.6V67.1c0-17,13.8-30.8,30.8-30.8h219.4c17,0,30.8,13.8,30.8,30.8v123.5c0,17-13.8,30.8-30.8,30.8
	H247.3C230.2,221.4,216.4,207.6,216.4,190.6z"/>
<g>
	<path class="st0" d="M466.6,236H247.3c-25,0-45.4-20.4-45.4-45.4V67.1c0-25,20.4-45.4,45.4-45.4h219.4c25,0,45.4,20.4,45.4,45.4
		v123.5C512,215.6,491.6,236,466.6,236z M247.3,50.8c-9,0-16.3,7.3-16.3,16.3v123.5c0,9,7.3,16.3,16.3,16.3h219.4
		c9,0,16.3-7.3,16.3-16.3V67.1c0-9-7.3-16.3-16.3-16.3L247.3,50.8L247.3,50.8z"/>
	<path class="st0" d="M344.8,137.4h-4.9v-8.9c0-5.1-5.1-8.4-13-8.4s-13,3.3-13,8.4v8.9H305L330.1,87c0.4-1,0.9-2.2,0.9-3.4
		c0-6.3-8.4-10.2-13-10.2c-4.8,0-8.7,2.4-10.9,6.7L273.1,147c-1.2,2.2-1.4,4.1-1.4,5.1c0,5.6,3.7,9.4,9.1,9.4h33.1v14.2
		c0,5.9,6.7,8.5,13,8.5c6.2,0,13-2.7,13-8.5v-14.2h4.9c4.4,0,8.5-5.9,8.5-12.1C353.3,143.6,350.6,137.4,344.8,137.4z"/>
	<path class="st0" d="M433.6,137.4h-4.9v-8.9c0-5.1-5.1-8.4-13-8.4s-13,3.3-13,8.4v8.9h-8.9L419,87c0.4-1,0.9-2.2,0.9-3.4
		c0-6.3-8.4-10.2-13-10.2c-4.8,0-8.7,2.4-10.9,6.7L362,147c-1.2,2.2-1.4,4.1-1.4,5.1c0,5.6,3.7,9.4,9.1,9.4h33.1v14.2
		c0,5.9,6.7,8.5,13,8.5s13-2.7,13-8.5v-14.2h4.9c4.4,0,8.5-5.9,8.5-12.1C442.2,143.6,439.5,137.4,433.6,137.4z"/>
</g>
</svg>
