<?xml version="1.0" encoding="utf-8"?>
<!-- Generator: Adobe Illustrator 23.0.0, SVG Export Plug-In . SVG Version: 6.00 Build 0)  -->
<svg version="1.1" id="Capa_1" xmlns="http://www.w3.org/2000/svg" xmlns:xlink="http://www.w3.org/1999/xlink" x="0px" y="0px"
	 viewBox="0 0 97.8 97.8" style="enable-background:new 0 0 97.8 97.8;" xml:space="preserve">
<style type="text/css">
	.st0{fill:#FFFFFF;}
</style>
<g>
	<g>
		<path class="st0" d="M50.7,33.7c0-6.8-4-17.3-11.8-17.3c-2.4,0-5.1,1.2-6.6,3.1c-1.6,2-2.1,4.5-2.1,7c0,6.3,3.7,16.7,11.7,16.7
			c2.3,0,4.9-1.1,6.4-2.6C50.5,38.4,50.7,35.4,50.7,33.7z"/>
		<path class="st0" d="M45.7,58.4c-0.7-0.1-1.2-0.1-2.2-0.1c-0.8,0-5.9,0.2-9.9,1.5c-2.1,0.7-8.1,3-8.1,9.7C25.6,76.2,32,81,42.1,81
			c9,0,13.8-4.3,13.8-10.2C55.9,66,52.8,63.5,45.7,58.4z"/>
		<path class="st0" d="M48.9,0C21.9,0,0,21.9,0,48.9s21.9,48.9,48.9,48.9s48.9-21.9,48.9-48.9S75.9,0,48.9,0z M37.5,84.9
			c-13.6,0-20.2-6.5-20.2-13.5c0-3.4,1.7-8.2,7.2-11.5c5.8-3.6,13.7-4,17.9-4.3c-1.3-1.7-2.8-3.5-2.8-6.4c0-1.6,0.5-2.5,0.9-3.7
			c-1,0.1-2.1,0.2-3,0.2C27.6,45.8,22,38.4,22,31c0-4.3,2-9.1,6-12.6c5.4-4.4,12.7-5.6,17.7-5.6h18.5l-6.1,3.8h-5.8
			c2.2,1.8,6.7,5.5,6.7,12.7c0,7-3.9,10.3-7.9,13.4c-1.2,1.2-2.6,2.5-2.6,4.6c0,2.1,1.4,3.2,2.4,4l3.4,2.6c4.1,3.5,7.9,6.7,7.9,13.2
			C62.2,76,53.6,84.9,37.5,84.9z M78,47.7v9.5h-4.6v-9.5H64V43h9.4v-9.4H78V43h9.4v4.7H78z"/>
	</g>
</g>
</svg>
