<?xml version="1.0" encoding="utf-8"?>
<!-- Generator: Adobe Illustrator 23.0.0, SVG Export Plug-In . SVG Version: 6.00 Build 0)  -->
<svg version="1.1" id="Layer_1" xmlns="http://www.w3.org/2000/svg" xmlns:xlink="http://www.w3.org/1999/xlink" x="0px" y="0px"
	 viewBox="0 0 512 512" style="enable-background:new 0 0 512 512;" xml:space="preserve">
<style type="text/css">
	.st0{fill:#F0BF5F;}
	.st1{fill:#CEE8FA;}
	.st2{fill:#2D527C;}
</style>
<g>
	<path class="st0" d="M121.3,467.9H86.8c-7.7,0-13.9-6.2-13.9-13.9s6.2-13.9,13.9-13.9h34.5c7.7,0,13.9,6.2,13.9,13.9
		S129,467.9,121.3,467.9z"/>
	<path class="st0" d="M498.1,467.9h-36.6c-7.7,0-13.9-6.2-13.9-13.9s6.2-13.9,13.9-13.9h36.6c7.7,0,13.9,6.2,13.9,13.9
		S505.8,467.9,498.1,467.9z"/>
	<path class="st0" d="M482.8,466.2h-21.3c-7.7,0-13.9-6.2-13.9-13.9s6.2-13.9,13.9-13.9h7.4v-6.1c0-28.4-12.1-51.3-35-66.3
		c-16.7-10.9-37.9-16.7-61.3-16.7H169.9c-18.5,0-34.7,13.1-38.5,31.3l-12.2,57.8h4.2c7.7,0,13.9,6.2,13.9,13.9s-6.2,13.9-13.9,13.9
		h-21.3c-4.2,0-8.2-1.9-10.8-5.1c-2.6-3.3-3.7-7.5-2.8-11.6l15.7-74.6c6.5-30.9,34.2-53.4,65.8-53.4h202.7
		c28.8,0,55.3,7.3,76.5,21.2c30.7,20.1,47.6,51.9,47.6,89.6v20C496.7,460,490.5,466.2,482.8,466.2z"/>
	<path class="st0" d="M325.5,466.2H219.4c-7.7,0-13.9-6.2-13.9-13.9s6.2-13.9,13.9-13.9h106.2c7.7,0,13.9,6.2,13.9,13.9
		S333.2,466.2,325.5,466.2z"/>
</g>
<path class="st1" d="M372.6,335.4c21,0,40.7,4.3,57.4,12.5l-19.5-84.5c-5.4-20.6-24.1-35-45.4-35H241.2c-19,0-36.1,11.4-43.3,29
	l-29.1,78L372.6,335.4L372.6,335.4z"/>
<g>
	<path class="st0" d="M430,361.8c-2.1,0-4.2-0.5-6.1-1.4c-14.8-7.2-32.6-11.1-51.3-11.1H168.8c-4.6,0-8.8-2.2-11.4-6
		c-2.6-3.7-3.2-8.5-1.6-12.8l29.1-78c0.1-0.2,0.1-0.3,0.2-0.5c9.4-22.8,31.5-37.6,56.2-37.6h123.9c27.6,0,51.8,18.6,58.8,45.3
		c0,0.1,0.1,0.3,0.1,0.4l19.5,84.5c1.2,5.2-0.7,10.7-4.9,14C436.2,360.8,433.1,361.8,430,361.8z M188.9,321.5h183.8
		c13.2,0,26,1.6,38.1,4.7l-13.7-59.4c-3.9-14.4-17-24.4-31.9-24.4H241.2c-13.3,0-25.2,7.9-30.4,20.2L188.9,321.5z"/>
	<path class="st0" d="M325.5,407.8c-7.7,0-13.9-6.2-13.9-13.9V233.7c0-7.7,6.2-13.9,13.9-13.9c7.7,0,13.9,6.2,13.9,13.9v160.1
		C339.4,401.6,333.2,407.8,325.5,407.8z"/>
</g>
<path class="st2" d="M422.5,503.2c-30.4,0-55.1-24.7-55.1-55.1c0-30.4,24.7-55.1,55.1-55.1c30.4,0,55.1,24.7,55.1,55.1
	C477.6,478.5,452.9,503.2,422.5,503.2z M422.5,420.8c-15,0-27.3,12.2-27.3,27.3s12.2,27.3,27.3,27.3c15,0,27.3-12.2,27.3-27.3
	S437.5,420.8,422.5,420.8z"/>
<g>
	<path class="st2" d="M161.7,503.2c-30.4,0-55.1-24.7-55.1-55.1c0-30.4,24.7-55.1,55.1-55.1s55.1,24.7,55.1,55.1
		C216.9,478.5,192.1,503.2,161.7,503.2z M161.7,420.8c-15.1,0-27.3,12.2-27.3,27.3s12.2,27.3,27.3,27.3s27.3-12.2,27.3-27.3
		S176.8,420.8,161.7,420.8z"/>
	<path class="st2" d="M189.2,199.5H13.9c-7.7,0-13.9-6.2-13.9-13.9V22.7C0,15,6.2,8.8,13.9,8.8h175.3c7.7,0,13.9,6.2,13.9,13.9
		v162.9C203.1,193.3,196.9,199.5,189.2,199.5z M27.8,171.7h147.5V36.6H27.8V171.7z"/>
	<path class="st2" d="M103.4,56.3H77.5c-5.3,0-9.3,3.4-9.3,8v79.6c0,4.8,4.9,8.1,11.8,8.1c7,0,11.8-3.3,11.8-8.1v-24.9h10.3
		c20.9,0,32.9-11.3,32.9-31.1v-0.6C135,67.3,123.8,56.3,103.4,56.3z M102.1,99.7H91.8V77.5h10.3c6.2,0,9.2,3.4,9.2,10.4v1.4
		C111.3,96.3,108.3,99.7,102.1,99.7z"/>
	<path class="st2" d="M101.5,316.5c-7.7,0-13.9-6.2-13.9-13.9V187.4c0-7.7,6.2-13.9,13.9-13.9s13.9,6.2,13.9,13.9v115.2
		C115.5,310.3,109.2,316.5,101.5,316.5z"/>
</g>
</svg>
