<?xml version="1.0" encoding="utf-8"?>
<!-- Generator: Adobe Illustrator 23.0.0, SVG Export Plug-In . SVG Version: 6.00 Build 0)  -->
<svg version="1.1" id="Layer_1" xmlns="http://www.w3.org/2000/svg" xmlns:xlink="http://www.w3.org/1999/xlink" x="0px" y="0px"
	 viewBox="0 0 512 512" style="enable-background:new 0 0 512 512;" xml:space="preserve">
<style type="text/css">
	.st0{fill:#F0BF5F;}
	.st1{fill:#CEE8FA;}
	.st2{fill:#2D527C;}
</style>
<g>
	<path class="st0" d="M262.3,229.2c-7.9,0-14.4-6.4-14.4-14.4V51.5C248,25.8,270.2,5,297.6,5c27.4,0,49.6,20.9,49.6,46.6
		c0,7.9-6.4,14.4-14.4,14.4s-14.4-6.4-14.4-14.4c0-9.8-9.4-17.8-20.9-17.8s-20.9,8-20.9,17.8v163.3
		C276.7,222.7,270.3,229.2,262.3,229.2z"/>
	<path class="st0" d="M427.1,270.8c-7.9,0-14.4-6.4-14.4-14.4V51.5C412.8,25.8,435,5,462.4,5S512,25.8,512,51.5
		c0,7.9-6.4,14.4-14.4,14.4c-7.9,0-14.4-6.4-14.4-14.4c0-9.8-9.4-17.8-20.9-17.8s-20.9,8-20.9,17.8v204.9
		C441.5,264.3,435.1,270.8,427.1,270.8z"/>
	<path class="st0" d="M340,125h-77.6c-7.9,0-14.4-6.4-14.4-14.4s6.4-14.4,14.4-14.4H340c7.9,0,14.4,6.4,14.4,14.4S347.9,125,340,125
		z"/>
	<path class="st0" d="M340,229.2h-77.6c-7.9,0-14.4-6.4-14.4-14.4s6.4-14.4,14.4-14.4H340c7.9,0,14.4,6.4,14.4,14.4
		C354.3,222.7,347.9,229.2,340,229.2z"/>
	<path class="st0" d="M427.1,177.1h-77.6c-7.9,0-14.4-6.4-14.4-14.4s6.4-14.4,14.4-14.4h77.6c7.9,0,14.4,6.4,14.4,14.4
		S435.1,177.1,427.1,177.1z"/>
</g>
<path class="st1" d="M471.7,375.1c0,17.2-20.5,31.1-45.9,31.1c-25.3,0-45.9-13.9-45.9-31.1c0,17.2-20.5,31.1-45.9,31.1
	c-25.3,0-45.9-13.9-45.9-31.1h0.7c0,17.2-20.5,31.1-45.9,31.1s-45.9-13.9-45.9-31.1c0,17.2-20.5,31.1-45.9,31.1
	s-45.9-13.9-45.9-31.1h0.7c0,17.2-20.5,31.1-45.9,31.1s-45.9-13.9-45.9-31.1v-88c0,17.2,20.5,31.1,45.9,31.1s45.9-13.9,45.9-31.1
	h-0.7c0,17.2,20.5,31.1,45.9,31.1s45.9-13.9,45.9-31.1c0,17.2,20.5,31.1,45.9,31.1s45.9-13.9,45.9-31.1h-0.7
	c0,17.2,20.5,31.1,45.9,31.1s45.9-13.9,45.9-31.1c0,17.2,20.5,31.1,45.9,31.1s45.9-13.9,45.9-31.1L471.7,375.1L471.7,375.1
	L471.7,375.1z"/>
<g>
	<path class="st2" d="M425.8,420.6c-18.6,0-34.9-6-45.9-15.7c-11,9.7-27.3,15.7-45.9,15.7c-18.2,0-34.5-5.9-45.5-15.4
		c-11,9.5-27.3,15.4-45.5,15.4c-18.6,0-34.9-6-45.9-15.7c-11,9.7-27.3,15.7-45.9,15.7c-18.2,0-34.5-5.9-45.5-15.4
		c-11,9.6-27.3,15.4-45.5,15.4c-33.8,0-60.2-20-60.2-45.5v-88c0-7.9,6.4-14.4,14.4-14.4s14.4,6.4,14.4,14.4
		c0,7.7,13.8,16.7,31.5,16.7c16,0,28.3-6.9,31-13.9c-0.1-0.9-0.1-1.9-0.1-2.8c0-7.9,6.4-14.4,14.4-14.4h0.7
		c7.9,0,14.4,6.4,14.4,14.4c0,0.9,0,1.9-0.1,2.8c2.7,7,15,13.9,31,13.9c17.7,0,31.5-9,31.5-16.7c0-7.9,6.4-14.4,14.4-14.4
		s14.4,6.4,14.4,14.4c0,7.7,13.8,16.7,31.5,16.7c16,0,28.3-6.9,31-13.9c-0.1-0.9-0.1-1.9-0.1-2.8c0-7.9,6.4-14.4,14.4-14.4h0.7
		c7.9,0,14.4,6.4,14.4,14.4c0,0.9,0,1.9-0.1,2.8c2.7,7,15,13.9,31,13.9c17.7,0,31.5-9,31.5-16.7c0-7.9,6.4-14.4,14.4-14.4
		c7.9,0,14.4,6.4,14.4,14.4c0,7.7,13.8,16.7,31.5,16.7c17.7,0,31.5-9,31.5-16.7c0-7.9,6.4-14.4,14.4-14.4s14.4,6.4,14.4,14.4v88
		C486.1,400.6,459.6,420.6,425.8,420.6z M394.3,375.1c0,7.7,13.8,16.7,31.5,16.7c17.7,0,31.5-9,31.5-16.7V326
		c-9.1,4.1-19.9,6.5-31.5,6.5c-18.6,0-34.9-6-45.9-15.7c-11,9.7-27.3,15.7-45.9,15.7c-18.2,0-34.5-5.9-45.5-15.4
		c-11,9.6-27.3,15.4-45.5,15.4c-18.6,0-34.9-6-45.9-15.7c-11,9.7-27.3,15.7-45.9,15.7c-18.2,0-34.5-5.9-45.5-15.4
		c-11,9.6-27.3,15.4-45.5,15.4c-11.6,0-22.4-2.4-31.5-6.5v49.1c0,7.7,13.8,16.7,31.5,16.7c16,0,28.3-6.9,31-13.9
		c-0.1-0.9-0.1-1.9-0.1-2.8c0-7.9,6.4-14.4,14.4-14.4h0.7c7.9,0,14.4,6.4,14.4,14.4c0,0.9,0,1.9-0.1,2.8c2.7,7,15,13.9,31,13.9
		c17.7,0,31.5-9,31.5-16.7c0-7.9,6.4-14.4,14.4-14.4s14.4,6.4,14.4,14.4c0,7.7,13.8,16.7,31.5,16.7c16,0,28.3-6.9,31-13.9
		c-0.1-0.9-0.1-1.9-0.1-2.8c0-7.9,6.4-14.4,14.4-14.4h0.7c7.9,0,14.4,6.4,14.4,14.4c0,0.9,0,1.9-0.1,2.8c2.7,7,15,13.9,31,13.9
		c17.7,0,31.5-9,31.5-16.7c0-7.9,6.4-14.4,14.4-14.4C387.9,360.8,394.3,367.2,394.3,375.1z"/>
	<path class="st2" d="M334.1,507c-18.4,0-34.6-5.9-45.5-15.4c-11,9.5-27.2,15.4-45.5,15.4c-18.6,0-34.9-6-45.9-15.7
		c-11,9.7-27.3,15.7-45.9,15.7c-33.8,0-60.2-20-60.2-45.5c0-7.9,6.4-14.4,14.4-14.4h0.7c7.9,0,14.4,6.4,14.4,14.4
		c0,0.8-0.1,1.7-0.2,2.5c2.5,7.1,15.2,14.3,31.1,14.3c17.7,0,31.5-9,31.5-16.7c0-7.9,6.4-14.4,14.4-14.4s14.4,6.4,14.4,14.4
		c0,7.7,13.8,16.7,31.5,16.7c15.7,0,28.2-7,30.9-14c-0.1-0.9-0.1-1.8-0.1-2.8c0-7.9,6.4-14.4,14.4-14.4h0.7
		c7.9,0,14.4,6.4,14.4,14.4c0,0.9,0,1.8-0.1,2.8c2.7,7,15.3,14,30.9,14c17.7,0,31.5-9,31.5-16.7c0-7.9,6.4-14.4,14.4-14.4
		c7.9,0,14.4,6.4,14.4,14.4C394.3,487.1,367.9,507,334.1,507z"/>
</g>
</svg>
