<svg width="80" height="80" viewBox="0 0 80 80" fill="none" xmlns="http://www.w3.org/2000/svg">
<path fill-rule="evenodd" clip-rule="evenodd" d="M24.6927 3.04482C29.5457 1.03463 34.7471 0 40 0C45.2529 0 50.4543 1.03463 55.3073 3.04482C60.1604 5.05501 64.5699 8.00138 68.2843 11.7157C71.9986 15.4301 74.945 19.8396 76.9552 24.6927C78.9654 29.5457 80 34.7471 80 40C80 50.6087 75.7857 60.7828 68.2843 68.2843C60.7828 75.7857 50.6087 80 40 80C34.7471 80 29.5457 78.9654 24.6927 76.9552C19.8396 74.945 15.4301 71.9986 11.7157 68.2843C4.21427 60.7828 0 50.6087 0 40C0 29.3913 4.21427 19.2172 11.7157 11.7157C15.4301 8.00138 19.8396 5.05501 24.6927 3.04482ZM40.3571 62.1429C52.3891 62.1429 62.1429 52.3891 62.1429 40.3571C62.1429 28.3252 52.3891 18.5714 40.3571 18.5714C28.3252 18.5714 18.5714 28.3252 18.5714 40.3571C18.5714 52.3891 28.3252 62.1429 40.3571 62.1429Z" fill="#3F2AFF"/>
<g clip-path="url(#clip0_40_6)">
<path d="M39.9993 43.1122V33.8508C39.7367 33.8751 39.4772 33.916 39.2131 33.9282H31.6516C31.2327 33.9282 30.8927 34.2682 30.8927 34.6871V35.4459H28.6161C28.1972 35.4459 27.8572 35.7859 27.8572 36.2048V40.7581C27.8572 41.177 28.1972 41.517 28.6161 41.517H30.8927V42.2759C30.8927 42.6948 31.2327 43.0348 31.6516 43.0348H32.1115L35.1622 51.1669C35.3489 51.6541 35.7662 52.0078 36.2792 52.111C36.3809 52.1322 36.4826 52.1428 36.5828 52.1428C36.988 52.1428 37.3736 51.982 37.6498 51.6936L39.4726 49.8859C39.9386 49.42 40.0494 48.693 39.7519 48.1299L37.2051 43.0348H39.2207C39.4817 43.0469 39.7397 43.0879 39.9993 43.1122Z" fill="#2E2B44"/>
<path d="M52.0179 28.2244C52.0028 28.1986 51.9891 28.1774 51.9694 28.1531C51.8859 28.0468 51.7812 27.9603 51.6522 27.9102C51.6476 27.9087 51.6446 27.9026 51.64 27.9011C51.6248 27.8966 51.6112 27.9042 51.596 27.8996C51.5277 27.8799 51.4594 27.8571 51.3835 27.8571C51.3319 27.8571 51.2864 27.8768 51.2363 27.8875C51.2075 27.8935 51.1801 27.8951 51.1513 27.9042C51.0208 27.9467 50.9085 28.0195 50.8189 28.1197C50.8128 28.1258 50.8037 28.1273 50.7977 28.1333C48.4315 31.0065 45.1319 32.928 41.5181 33.6322V43.3322C45.1319 44.0365 48.4315 45.9564 50.7977 48.8296C50.8037 48.8371 50.8144 48.8402 50.8219 48.8493C50.8751 48.9085 50.9403 48.9555 51.0102 48.995C51.0329 49.0087 51.0511 49.0284 51.0739 49.039C51.1695 49.08 51.2727 49.1058 51.3835 49.1058C51.47 49.1058 51.555 49.0906 51.64 49.0618C51.6446 49.0603 51.6476 49.0542 51.6522 49.0527C51.7812 49.0026 51.8859 48.9176 51.9694 48.8098C51.9876 48.7855 52.0013 48.7643 52.0179 48.7385C52.0908 48.6216 52.1424 48.4926 52.1424 48.3469V28.616C52.1424 28.4703 52.0908 28.3413 52.0179 28.2244Z" fill="#2E2B44"/>
</g>
<defs>
<clipPath id="clip0_40_6">
<rect width="24.2857" height="24.2857" fill="white" transform="translate(27.8572 27.8571)"/>
</clipPath>
</defs>
</svg>
