<svg width="30" height="30" viewBox="0 0 30 30" fill="none" xmlns="http://www.w3.org/2000/svg">
<path fill-rule="evenodd" clip-rule="evenodd" d="M6.75 6.75002C6.94891 6.55111 7.2187 6.43936 7.5 6.43936C7.7813 6.43936 8.05109 6.55111 8.25 6.75002L23.25 21.75C23.4489 21.9489 23.5606 22.2187 23.5606 22.5C23.5606 22.7813 23.4489 23.0511 23.25 23.25C23.0511 23.4489 22.7813 23.5607 22.5 23.5607C22.2187 23.5607 21.9489 23.4489 21.75 23.25L6.75 8.25002C6.55109 8.05111 6.43934 7.78132 6.43934 7.50002C6.43934 7.21871 6.55109 6.94893 6.75 6.75002Z" fill="white"/>
<path fill-rule="evenodd" clip-rule="evenodd" d="M23.25 6.75002C23.4489 6.94893 23.5607 7.21871 23.5607 7.50002C23.5607 7.78132 23.4489 8.0511 23.25 8.25001L8.25001 23.25C8.0511 23.4489 7.78132 23.5607 7.50001 23.5607C7.21871 23.5607 6.94893 23.4489 6.75002 23.25C6.55111 23.0511 6.43936 22.7813 6.43936 22.5C6.43936 22.2187 6.5511 21.9489 6.75002 21.75L21.75 6.75002C21.9489 6.5511 22.2187 6.43936 22.5 6.43936C22.7813 6.43936 23.0511 6.5511 23.25 6.75002Z" fill="white"/>
</svg>
