<?xml version="1.0" encoding="utf-8"?>
<!-- Generator: Adobe Illustrator 23.0.0, SVG Export Plug-In . SVG Version: 6.00 Build 0)  -->
<svg version="1.1" id="Capa_1" xmlns="http://www.w3.org/2000/svg" xmlns:xlink="http://www.w3.org/1999/xlink" x="0px" y="0px"
	 viewBox="0 0 97.8 97.8" style="enable-background:new 0 0 97.8 97.8;" xml:space="preserve">
<style type="text/css">
	.st0{fill:#FFFFFF;}
</style>
<g>
	<g>
		<path class="st0" d="M67.2,46.1c-3.3,0-6,2.6-6,5.9c0,3.3,2.7,6,5.9,6c3.3,0,5.9-2.7,5.9-5.9C73.1,48.7,70.5,46.1,67.2,46.1z
			 M67.2,55c-1.7,0-3-1.3-3-3c0-1.7,1.3-3,3-3c1.7,0,3,1.4,3,3C70.2,53.7,68.8,55,67.2,55z"/>
		<path class="st0" d="M30.5,37.5c-7.9-0.1-14.8,6.5-14.6,14.9c0.1,7.8,6.6,14.5,14.8,14.4c8-0.1,14.5-6.6,14.5-14.6
			C45.2,44.1,38.7,37.5,30.5,37.5z M30.7,61.1c-5.3,0.2-9.6-4-9.6-9.1c0-5.2,4.3-9.2,9.1-9.1c5,0,9.1,4,9.1,9.1
			C39.4,57.1,35.4,60.9,30.7,61.1z"/>
		<path class="st0" d="M48.9,0C21.9,0,0,21.9,0,48.9s21.9,48.9,48.9,48.9s48.9-21.9,48.9-48.9S75.9,0,48.9,0z M77,67.9
			c-3,1.9-6.3,2.8-9.8,2.8c-1.5,0-3-0.2-4.4-0.6c-3.5-0.9-6.5-2.7-9-5.3c-0.3-0.3-0.6-0.7-1-1.1c-1.3,2-2.6,3.9-3.9,5.9
			c-1.3-2-2.6-3.9-3.9-5.8c-0.1,0-0.1,0.1-0.1,0.1c0,0-0.1,0.1-0.1,0.1c-3,3.6-6.8,5.7-11.4,6.5c-2.6,0.4-5.1,0.3-7.6-0.4
			c-3.5-1-6.5-2.8-9-5.6c-2.4-2.7-3.8-5.8-4.4-9.4c-0.6-3.3,0.1-6.5,0.3-7.3c0.6-2.3,1.5-4.3,2.9-6.2c0.1-0.1,0.1-0.4,0.1-0.5
			c-0.5-2-1.5-3.8-2.6-5.6c-0.3-0.4-0.6-0.8-0.9-1.3c0,0,0-0.1,0-0.1c0.1,0,0.1,0,0.2,0c3.7,0,7.4,0,11.1,0c0.2,0,0.3-0.1,0.5-0.2
			c2.6-1.7,5.4-3,8.3-4c2.1-0.7,4.2-1.3,6.4-1.7c2.1-0.4,4.2-0.7,6.4-0.8c5.2-0.4,9.4,0.1,12.2,0.5c2.1,0.3,4.1,0.8,6.1,1.4
			c3.5,1.1,6.7,2.6,9.8,4.5c0.2,0.1,0.5,0.2,0.8,0.2c3.6,0,7.2,0,10.8,0c0.3,0,0.6,0,0.9,0c0,0.1,0,0.1,0,0.1
			c-0.2,0.3-0.3,0.5-0.5,0.8c-1.2,1.9-2.3,3.8-2.9,6c-0.1,0.2-0.1,0.4,0.1,0.7c3.2,4.6,4.2,9.7,2.9,15.2
			C83.9,61.5,81.2,65.2,77,67.9z"/>
		<path class="st0" d="M30.2,46.1c-3.2,0-5.9,2.7-5.9,5.9c0,3.3,2.7,5.9,6,5.9c3.2,0,5.9-2.7,5.9-6C36.2,48.7,33.6,46.1,30.2,46.1z
			 M30.3,55.1c-1.7,0-3.1-1.3-3.1-3.1c0-1.7,1.3-3,3-3c1.7,0,3,1.3,3.1,3C33.4,53.7,32,55,30.3,55.1z"/>
		<path class="st0" d="M66.9,37.6c-8,0.2-14.3,6.6-14.4,14.6c0,8.1,6.6,14.8,14.7,14.7c8.1,0,14.7-6.5,14.7-14.7
			C81.9,43.8,75,37.4,66.9,37.6z M67.6,61.1c-5.3,0.2-9.5-4-9.5-9.1c0-5.2,4.3-9.2,9.1-9.1c5,0,9.1,4,9.1,9.1
			C76.3,57,72.3,60.9,67.6,61.1z"/>
		<path class="st0" d="M54.7,38.6c3.2-3,7.1-4.5,11.5-4.9c-5.2-2.3-10.7-3.3-16.4-3.4c-6.4-0.1-12.7,0.8-18.6,3.3
			c4.5,0.3,8.4,1.8,11.7,4.8c3.3,3,5.2,6.8,5.9,11.2C49.6,45.3,51.5,41.6,54.7,38.6z"/>
	</g>
</g>
</svg>
