<?xml version="1.0" encoding="utf-8"?>
<!-- Generator: Adobe Illustrator 23.0.0, SVG Export Plug-In . SVG Version: 6.00 Build 0)  -->
<svg version="1.1" id="Layer_1" xmlns="http://www.w3.org/2000/svg" xmlns:xlink="http://www.w3.org/1999/xlink" x="0px" y="0px"
	 viewBox="0 0 512 512" style="enable-background:new 0 0 512 512;" xml:space="preserve">
<style type="text/css">
	.st0{fill:#2D527C;}
	.st1{fill:#F0BF5F;}
	.st2{fill:#CEE8FA;}
</style>
<g>
	<path class="st0" d="M462.4,477.5H49.6C22.3,477.5,0,455.3,0,427.9V84.1c0-27.4,22.3-49.6,49.6-49.6h270.9
		c7.8,0,14.1,6.3,14.1,14.1s-6.3,14.1-14.1,14.1H49.6c-11.8,0-21.4,9.6-21.4,21.4v343.8c0,11.8,9.6,21.4,21.4,21.4h412.8
		c11.8,0,21.4-9.6,21.4-21.4V84.1c0-11.8-9.6-21.4-21.4-21.4h-60.6c-7.8,0-14.1-6.3-14.1-14.1s6.3-14.1,14.1-14.1h60.6
		c27.4,0,49.6,22.3,49.6,49.6v343.8C512,455.3,489.7,477.5,462.4,477.5z"/>
	<path class="st0" d="M411.7,415.3H138.6c-7.8,0-14.1-6.3-14.1-14.1s6.3-14.1,14.1-14.1h273.1c5.4,0,9.8-4.4,9.8-9.8V134.8
		c0-5.4-4.4-9.8-9.8-9.8H138.6c-7.8,0-14.1-6.3-14.1-14.1s6.3-14.1,14.1-14.1h273.1c21,0,38.1,17.1,38.1,38.1v242.4
		C449.8,398.2,432.7,415.3,411.7,415.3z"/>
	<path class="st0" d="M76.3,415.3c-7.8,0-14.1-6.3-14.1-14.1V110.8c0-7.8,6.3-14.1,14.1-14.1s14.1,6.3,14.1,14.1v290.4
		C90.5,409,84.1,415.3,76.3,415.3z"/>
</g>
<path class="st1" d="M326.1,368.5c-62,0-112.5-50.5-112.5-112.5s50.5-112.5,112.5-112.5S438.6,194,438.6,256
	S388.1,368.5,326.1,368.5z M326.1,171.7c-46.5,0-84.3,37.8-84.3,84.3s37.8,84.3,84.3,84.3s84.3-37.8,84.3-84.3
	S372.6,171.7,326.1,171.7z M326.1,306.9c-28.1,0-50.9-22.8-50.9-50.9s22.8-50.9,50.9-50.9S377,227.9,377,256
	S354.2,306.9,326.1,306.9z M326.1,233.3c-12.5,0-22.7,10.2-22.7,22.7c0,12.5,10.2,22.7,22.7,22.7s22.7-10.2,22.7-22.7
	C348.8,243.5,338.6,233.3,326.1,233.3z"/>
<rect x="76.3" y="308.6" class="st2" width="62.2" height="45.7"/>
<path class="st0" d="M138.6,368.4H76.3c-7.8,0-14.1-6.3-14.1-14.1v-45.7c0-7.8,6.3-14.1,14.1-14.1h62.2c7.8,0,14.1,6.3,14.1,14.1
	v45.7C152.7,362.1,146.4,368.4,138.6,368.4z M90.5,340.2h34v-17.5h-34V340.2z"/>
<rect x="76.3" y="157.7" class="st2" width="62.2" height="45.7"/>
<g>
	<path class="st0" d="M138.6,217.5H76.3c-7.8,0-14.1-6.3-14.1-14.1v-45.7c0-7.8,6.3-14.1,14.1-14.1h62.2c7.8,0,14.1,6.3,14.1,14.1
		v45.7C152.7,211.2,146.4,217.5,138.6,217.5z M90.5,189.3h34v-17.5h-34V189.3z"/>
	<path class="st1" d="M259.7,336.5c-3.6,0-7.2-1.4-10-4.1c-5.5-5.5-5.5-14.5,0-20l40.4-40.4c5.5-5.5,14.5-5.5,20,0
		c5.5,5.5,5.5,14.5,0,20l-40.4,40.4C266.9,335.1,263.3,336.5,259.7,336.5z"/>
	<path class="st1" d="M354.7,241.5c-3.6,0-7.2-1.4-10-4.1c-5.5-5.5-5.5-14.5,0-20l37.8-37.8c5.5-5.5,14.5-5.5,20,0
		c5.5,5.5,5.5,14.5,0,20l-37.8,37.8C362,240.1,358.3,241.5,354.7,241.5z"/>
	<path class="st1" d="M296.8,240.8c-3.6,0-7.2-1.4-10-4.1l-37.1-37.1c-5.5-5.5-5.5-14.5,0-20c5.5-5.5,14.5-5.5,20,0l37.1,37.1
		c5.5,5.5,5.5,14.5,0,20C304.1,239.5,300.4,240.8,296.8,240.8z"/>
	<path class="st1" d="M392.5,336.5c-3.6,0-7.2-1.4-10-4.1l-37.6-37.6c-5.5-5.5-5.5-14.5,0-20c5.5-5.5,14.5-5.5,20,0l37.6,37.6
		c5.5,5.5,5.5,14.5,0,20C399.7,335.1,396.1,336.5,392.5,336.5z"/>
</g>
</svg>
