<svg width="274" height="48" viewBox="0 0 274 48" fill="none" xmlns="http://www.w3.org/2000/svg">
<path d="M3.06603 5.24497V9.13975H43.0301V5.24497H3.06603ZM6.44924 22.2262V26.121H38.854V22.2262H6.44924ZM0 40.2461V44.1928H45.8847V40.2461H0Z" fill="white"/>
<path d="M58.9418 31.1063V34.1183H95.0998V31.1063H58.9418ZM61.1091 24.3034V27.3673H99.4345V24.3034H61.1091ZM61.1091 11.165V13.8654H88.8092V11.165H61.1091ZM93.6196 31.1063V31.6256C92.9853 40.0384 92.2981 43.31 91.3465 44.2447C90.8708 44.6602 90.395 44.7121 89.4435 44.7121C88.5977 44.7121 86.1132 44.7121 83.47 44.4524C84.0515 45.3872 84.4744 46.8412 84.5273 47.8279C87.2761 48.0356 89.9721 48.0356 91.2408 47.9318C92.6681 47.8279 93.6196 47.5163 94.5183 46.6335C95.9456 45.1795 96.6328 41.5963 97.4258 32.6642C97.5315 32.1449 97.5843 31.1063 97.5843 31.1063H93.6196ZM72.8975 0C72.4218 1.60984 71.4174 4.05057 70.6244 5.71235L74.0076 6.4913C75.0649 4.98532 76.3864 2.75231 77.4437 0.571237L72.8975 0ZM61.2149 4.36215V7.27026H87.5933V17.8641H61.2149V20.7202H91.558V4.36215H61.2149ZM58.9418 4.36215V32.1969H62.9065V4.36215H58.9418ZM79.8225 35.6243V41.3885H56.5101V44.5044H83.47V35.6243H79.8225ZM67.1355 33.6509V42.6349H70.8359V33.6509H67.1355ZM54.5013 35.832V47.049H58.096V35.832H54.5013Z" fill="white"/>
<path d="M125.033 25.4978V29.2888H161.931V25.4978H125.033ZM125.033 40.8692V44.7121H161.773V40.8692H125.033ZM123.183 10.2822V47.9318H127.095V14.177H159.975V47.7241H164.046V10.2822H123.183ZM141.368 0.207723V42.8945H145.438V0.207723H141.368Z" fill="white"/>
<path d="M195.182 3.0639V6.75095H214.107V25.9652H218.124V3.0639H195.182ZM198.565 19.2662V22.9532H215.904V19.2662H198.565ZM196.715 19.2662V41.5963C196.715 46.4777 198.354 47.7241 203.798 47.7241C204.909 47.7241 213.155 47.7241 214.424 47.7241C219.552 47.7241 220.767 45.491 221.296 37.5457C220.186 37.2341 218.494 36.6109 217.543 35.9359C217.278 42.7907 216.856 44.037 214.212 44.037C212.415 44.037 205.49 44.037 204.116 44.037C201.208 44.037 200.68 43.6216 200.68 41.5963V19.2662H196.715ZM181.861 24.6669V47.9318H185.614V24.6669H181.861ZM181.226 0.207723C179.587 3.68706 176.627 8.72431 174.248 11.7363L177.05 13.0865C179.482 10.1784 182.548 5.55655 184.874 1.7137L181.226 0.207723ZM188.045 6.02393C184.715 11.5805 178.953 19.37 174.407 23.9919L176.944 25.4459C181.543 20.928 187.358 13.5538 191.534 7.6857L188.045 6.02393ZM172.028 11.6843C174.988 13.9693 178.424 17.2928 180.01 19.5778L182.019 16.5658C180.433 14.4367 176.944 11.2689 173.931 9.08782L172.028 11.6843ZM186.354 18.0199C188.838 21.4473 191.482 26.0691 192.539 28.9772L195.763 27.4193C194.653 24.4592 191.904 19.9932 189.367 16.6177L186.354 18.0199ZM171.711 23.161L172.134 26.6403C177.42 26.4326 184.768 26.0171 191.904 25.5498L191.957 22.2782C184.451 22.6417 176.839 22.9532 171.711 23.161ZM187.781 30.6909C189.473 33.9106 191.27 38.1689 191.904 40.9212L195.288 39.6748C194.548 36.9225 192.75 32.7681 190.953 29.6003L187.781 30.6909ZM175.306 29.9119C174.565 34.4299 173.35 39.1036 171.341 42.2714C172.292 42.5829 173.984 43.4138 174.671 43.8812C176.521 40.5577 178.054 35.5204 178.9 30.5351L175.306 29.9119Z" fill="white"/>
<path d="M226.318 22.7455V26.6922H272.308V22.7455H226.318ZM229.913 8.04922V12.0479H269.348V8.04922H229.913ZM250.74 23.7841L247.04 24.615C250.952 36.8706 258.511 44.5563 271.357 47.776C271.938 46.6854 273.101 45.0237 274 44.1409C261.63 41.5443 254.071 34.4818 250.74 23.7841ZM246.987 0.155793V16.3062C246.987 26.7961 244.82 38.065 224.944 44.5044C225.789 45.3353 226.952 47.049 227.428 47.9837C248.679 40.9212 251.163 28.354 251.163 16.3062V0.155793H246.987Z" fill="white"/>
</svg>
