<?xml version="1.0" encoding="utf-8"?>
<!-- Generator: Adobe Illustrator 23.0.0, SVG Export Plug-In . SVG Version: 6.00 Build 0)  -->
<svg version="1.1" id="Layer_1" xmlns="http://www.w3.org/2000/svg" xmlns:xlink="http://www.w3.org/1999/xlink" x="0px" y="0px"
	 viewBox="0 0 512 512" style="enable-background:new 0 0 512 512;" xml:space="preserve">
<style type="text/css">
	.st0{fill:#2D527C;}
	.st1{fill:#CEE8FA;}
	.st2{fill:#F0BF5F;}
</style>
<g>
	<path class="st0" d="M303.6,453.1H162.3c-71.3,0-129.3-58-129.3-129.3V201.2c0-8,6.5-14.4,14.4-14.4s14.4,6.5,14.4,14.4v122.7
		c0,55.4,45,100.4,100.4,100.4h141.3c8,0,14.4,6.5,14.4,14.4C318,446.7,311.6,453.1,303.6,453.1z"/>
	<path class="st0" d="M387.7,446.7c-6,0-11.5-3.7-13.6-9.7c-2.6-7.5,1.3-15.7,8.8-18.4c40.2-14.1,67.2-52.2,67.2-94.8v-14.5
		c0-8,6.5-14.4,14.4-14.4s14.4,6.5,14.4,14.4v14.5c0,54.8-34.7,103.9-86.5,122C390.9,446.4,389.3,446.7,387.7,446.7z"/>
</g>
<path class="st1" d="M468.7,248.8H43.3c-15.9,0-28.8-12.9-28.8-28.8l0,0c0-15.9,12.9-28.8,28.8-28.8h425.5
	c15.9,0,28.8,12.9,28.8,28.8l0,0C497.6,235.9,484.7,248.8,468.7,248.8z"/>
<path class="st0" d="M468.7,263.2H43.3C19.4,263.2,0,243.8,0,219.9s19.4-43.3,43.3-43.3h425.5c23.9,0,43.3,19.4,43.3,43.3
	S492.6,263.2,468.7,263.2z M43.3,205.5c-8,0-14.4,6.5-14.4,14.4s6.5,14.4,14.4,14.4h425.5c8,0,14.4-6.5,14.4-14.4
	s-6.5-14.4-14.4-14.4H43.3z"/>
<circle class="st1" cx="113.9" cy="455" r="25.2"/>
<path class="st0" d="M113.9,494.7c-21.9,0-39.7-17.8-39.7-39.7s17.8-39.7,39.7-39.7s39.7,17.8,39.7,39.7S135.8,494.7,113.9,494.7z
	 M113.9,444.2c-6,0-10.8,4.9-10.8,10.8s4.9,10.8,10.8,10.8s10.8-4.9,10.8-10.8S119.9,444.2,113.9,444.2z"/>
<circle class="st1" cx="398.1" cy="455" r="25.2"/>
<g>
	<path class="st0" d="M398.1,494.7c-21.9,0-39.7-17.8-39.7-39.7s17.8-39.7,39.7-39.7s39.7,17.8,39.7,39.7S419.9,494.7,398.1,494.7z
		 M398.1,444.2c-6,0-10.8,4.9-10.8,10.8s4.9,10.8,10.8,10.8s10.8-4.9,10.8-10.8S404,444.2,398.1,444.2z"/>
	<path class="st2" d="M323.4,88.7H188.6c-8,0-14.4-6.5-14.4-14.4s6.5-14.4,14.4-14.4h134.9c8,0,14.4,6.5,14.4,14.4
		S331.4,88.7,323.4,88.7z"/>
	<path class="st2" d="M328.1,116.8c-8,0-14.4-6.5-14.4-14.4V31.7c0-8,6.5-14.4,14.4-14.4s14.4,6.5,14.4,14.4v70.7
		C342.5,110.4,336.1,116.8,328.1,116.8z"/>
	<path class="st2" d="M354.1,46.2h-51.9c-8,0-14.4-6.5-14.4-14.4s6.5-14.4,14.4-14.4h51.9c8,0,14.4,6.5,14.4,14.4
		S362,46.2,354.1,46.2z"/>
	<path class="st2" d="M183.9,116.8c-8,0-14.4-6.5-14.4-14.4V31.7c0-8,6.5-14.4,14.4-14.4s14.4,6.5,14.4,14.4v70.7
		C198.3,110.4,191.9,116.8,183.9,116.8z"/>
	<path class="st2" d="M209.8,46.2h-51.9c-8,0-14.4-6.5-14.4-14.4s6.5-14.4,14.4-14.4h51.9c8,0,14.4,6.5,14.4,14.4
		S217.8,46.2,209.8,46.2z"/>
	<path class="st2" d="M256,150c-8,0-14.4-6.5-14.4-14.4V75.7c0-8,6.5-14.4,14.4-14.4s14.4,6.5,14.4,14.4v59.9
		C270.4,143.5,264,150,256,150z"/>
</g>
<path class="st1" d="M195.7,334.8H118c-9.8,0-17.8-8-17.8-17.8v-126h113.2v126C213.4,326.9,205.5,334.8,195.7,334.8z"/>
<path class="st0" d="M195.7,349.3H118c-17.7,0-32.2-14.4-32.2-32.2v-126c0-8,6.5-14.4,14.4-14.4h113.2c8,0,14.4,6.5,14.4,14.4v126
	C227.9,334.8,213.4,349.3,195.7,349.3z M114.7,205.5v111.6c0,1.8,1.5,3.3,3.3,3.3h77.7c1.8,0,3.3-1.5,3.3-3.3V205.5H114.7
	L114.7,205.5z"/>
</svg>
