<?xml version="1.0" encoding="utf-8"?>
<!-- Generator: Adobe Illustrator 23.0.0, SVG Export Plug-In . SVG Version: 6.00 Build 0)  -->
<svg version="1.1" id="Capa_1" xmlns="http://www.w3.org/2000/svg" xmlns:xlink="http://www.w3.org/1999/xlink" x="0px" y="0px"
	 viewBox="0 0 97.8 97.8" style="enable-background:new 0 0 97.8 97.8;" xml:space="preserve">
<style type="text/css">
	.st0{fill:#FFFFFF;}
</style>
<g>
	<path class="st0" d="M48.9,0C21.9,0,0,21.9,0,48.9s21.9,48.9,48.9,48.9s48.9-21.9,48.9-48.9S75.9,0,48.9,0z M73.7,54.2
		c2.3,2.2,4.7,4.3,6.7,6.8c0.9,1.1,1.8,2.2,2.4,3.5c0.9,1.8,0.1,3.8-1.5,3.9l-10,0c-2.6,0.2-4.6-0.8-6.4-2.6c-1.4-1.4-2.7-2.9-4-4.4
		c-0.5-0.6-1.1-1.2-1.8-1.6c-1.4-0.9-2.6-0.6-3.3,0.8c-0.8,1.5-1,3.1-1.1,4.7c-0.1,2.4-0.8,3-3.2,3.1c-5.1,0.2-9.9-0.5-14.3-3.1
		c-3.9-2.3-7-5.4-9.6-9c-5.2-7-9.1-14.7-12.7-22.6c-0.8-1.8-0.2-2.7,1.8-2.8c3.3-0.1,6.5-0.1,9.8,0c1.3,0,2.2,0.8,2.7,2
		c1.8,4.3,3.9,8.5,6.6,12.3c0.7,1,1.5,2,2.5,2.8c1.2,0.8,2,0.5,2.6-0.8c0.3-0.8,0.5-1.7,0.6-2.6c0.3-3,0.3-6-0.2-9
		C41,33.6,40,32.4,38.1,32c-1-0.2-0.8-0.5-0.4-1.1c0.8-0.9,1.6-1.5,3.1-1.5l11.3,0c1.8,0.4,2.2,1.1,2.4,2.9l0,12.6
		c0,0.7,0.3,2.8,1.6,3.2c1,0.3,1.7-0.5,2.3-1.1c2.7-2.9,4.6-6.3,6.4-9.8c0.8-1.6,1.4-3.2,2.1-4.8c0.5-1.2,1.2-1.8,2.6-1.8l10.9,0
		c0.3,0,0.6,0,1,0.1c1.8,0.3,2.3,1.1,1.8,2.9c-0.9,2.8-2.6,5.2-4.3,7.5c-1.8,2.5-3.8,4.9-5.6,7.5C71.5,51,71.6,52.2,73.7,54.2z"/>
</g>
</svg>
